<svg xmlns="http://www.w3.org/2000/svg" width="128" height="128" viewBox="0 0 128 128" role="img" aria-label="Tab Cat icon">
  <defs>
    <linearGradient id="tabCatBg" x1="20" y1="10" x2="108" y2="120" gradientUnits="userSpaceOnUse">
      <stop offset="0" stop-color="#d98a4d"/>
      <stop offset="1" stop-color="#8f442b"/>
    </linearGradient>
    <filter id="softShadow" x="-20%" y="-20%" width="140%" height="150%" color-interpolation-filters="sRGB">
      <feDropShadow dx="0" dy="8" stdDeviation="8" flood-color="#4b2417" flood-opacity="0.24"/>
    </filter>
    <clipPath id="appMask">
      <rect x="4" y="4" width="120" height="120" rx="28"/>
    </clipPath>
  </defs>

  <rect x="4" y="4" width="120" height="120" rx="28" fill="url(#tabCatBg)"/>
  <g clip-path="url(#appMask)">
    <path d="M23 104c18 11 64 11 82 0" fill="none" stroke="#5d2d1d" stroke-width="9" stroke-linecap="round" opacity="0.18"/>

    <g filter="url(#softShadow)">
      <rect x="26" y="31" width="76" height="49" rx="12" fill="#fffaf3"/>
      <path d="M38 31h22c5 0 8 4 8 8v4H26v-1c0-6 5-11 12-11Z" fill="#526f5b"/>
      <rect x="36" y="45" width="54" height="8" rx="4" fill="#e6ddd2"/>
      <rect x="36" y="59" width="38" height="7" rx="3.5" fill="#e6ddd2"/>
    </g>

    <g filter="url(#softShadow)">
      <path d="M36 81V58l16 13c4-2 8-3 12-3s8 1 12 3l16-13v23c0 18-12 31-28 31S36 99 36 81Z" fill="#171412"/>
      <path d="M49 78c4-3 9-5 15-5s11 2 15 5" fill="none" stroke="#fffaf3" stroke-width="5" stroke-linecap="round" opacity="0.16"/>
      <circle cx="53" cy="87" r="4" fill="#fffaf3"/>
      <circle cx="75" cy="87" r="4" fill="#fffaf3"/>
      <path d="M60 97h8" stroke="#fffaf3" stroke-width="4" stroke-linecap="round"/>
    </g>
  </g>
</svg>
